<?xml version="1.0" encoding="utf-8"?>
<!-- Generator: Adobe Illustrator 24.0.2, SVG Export Plug-In . SVG Version: 6.00 Build 0)  -->
<svg version="1.1" id="Capa_1" xmlns="http://www.w3.org/2000/svg" xmlns:xlink="http://www.w3.org/1999/xlink" x="0px" y="0px"
	 viewBox="0 0 512 512" style="enable-background:new 0 0 512 512;" xml:space="preserve">
<style type="text/css">
	.st0{fill:#FFFFFF;}
	.st1{fill:#E91212;}
</style>
<rect x="111.9" y="131" class="st0" width="288" height="231"/>
<path class="st1" d="M256,0C114.6,0,0,114.6,0,256s114.6,256,256,256s256-114.6,256-256S397.4,0,256,0z M390.6,310.6
	c-12.5,12.5-32.8,12.5-45.3,0L256,221.3l-89.4,89.3c-12.5,12.5-32.8,12.5-45.3,0s-12.5-32.8,0-45.3l112-112
	c6.3-6.3,14.4-9.4,22.6-9.4c8.2,0,16.4,3.1,22.6,9.4l112,112C403.1,277.9,403.1,298.1,390.6,310.6z"/>
</svg>
